{
    "accessors" : [
        {
            "bufferView" : 0,
            "componentType" : 5123,
            "count" : 756,
            "max" : [
                454
            ],
            "min" : [
                0
            ],
            "type" : "SCALAR"
        },
        {
            "bufferView" : 1,
            "componentType" : 5126,
            "count" : 455,
            "max" : [
                1.5593944787979126,
                3.076767683029175,
                1.5000009536743164
            ],
            "min" : [
                -1.5593938827514648,
                -1.917171835899353,
                -3.3121209144592285
            ],
            "type" : "VEC3"
        },
        {
            "bufferView" : 2,
            "componentType" : 5126,
            "count" : 455,
            "max" : [
                1.0,
                1.0,
                1.0
            ],
            "min" : [
                -1.0,
                -1.0,
                -1.0
            ],
            "type" : "VEC3"
        }
    ],
    "asset" : {
        "generator" : "Khronos Blender glTF 2.0 exporter",
        "version" : "2.0"
    },
    "bufferViews" : [
        {
            "buffer" : 0,
            "byteLength" : 1512,
            "byteOffset" : 0,
            "target" : 34963
        },
        {
            "buffer" : 0,
            "byteLength" : 5460,
            "byteOffset" : 1512,
            "target" : 34962
        },
        {
            "buffer" : 0,
            "byteLength" : 5460,
            "byteOffset" : 6972,
            "target" : 34962
        }
    ],
    "buffers" : [
        {
            "byteLength" : 12432,
            "uri" : "rino.bin"
        }
    ],
    "materials" : [
        {
            "name" : "Material",
            "pbrMetallicRoughness" : {
                "baseColorFactor" : [
                    0.6400000190734865,
                    0.6400000190734865,
                    0.6400000190734865,
                    1.0
                ],
                "metallicFactor" : 0.0
            }
        }
    ],
    "meshes" : [
        {
            "name" : "Cube",
            "primitives" : [
                {
                    "attributes" : {
                        "NORMAL" : 2,
                        "POSITION" : 1
                    },
                    "indices" : 0,
                    "material" : 0
                }
            ]
        }
    ],
    "nodes" : [
        {
            "name" : "Camera",
            "rotation" : [
                0.483536034822464,
                0.33687159419059753,
                -0.20870360732078552,
                0.7804827094078064
            ],
            "scale" : [
                0.6000000238418579,
                0.6000000238418579,
                0.6000000238418579
            ],
            "translation" : [
                6.029662609100342,
                4.705869674682617,
                4.638208866119385
            ]
        },
        {
            "mesh" : 0,
            "name" : "Cube",
            "scale" : [
                1.9800000190734863,
                1.9800000190734863,
                1.9800000190734863
            ],
            "translation" : [
                1.5409834384918213,
                1.4996702671051025,
                0.7336246967315674
            ]
        },
        {
            "name" : "Lamp",
            "rotation" : [
                0.16907578706741333,
                0.7558802962303162,
                -0.27217134833335876,
                0.5709474682807922
            ],
            "scale" : [
                0.6000000238418579,
                0.6000000238418579,
                0.6000000834465027
            ],
            "translation" : [
                3.9867308139801025,
                5.041987419128418,
                0.13035237789154053
            ]
        }
    ],
    "scene" : 0,
    "scenes" : [
        {
            "name" : "Scene",
            "nodes" : [
                1,
                2,
                0
            ]
        }
    ]
}
